<mxfile host="drawio-plugin" modified="2022-12-13T05:21:49.061Z" agent="5.0 (Macintosh; Intel Mac OS X 10_15_7) AppleWebKit/537.36 (KHTML, like Gecko) Chrome/104.0.5112.102 Safari/537.36" etag="BH5fhRBHmrx5hy-K42L4" version="20.5.3" type="embed"><diagram id="LXXolyaRc9GEFiz_JLzD" name="Page-1"><mxGraphModel dx="626" dy="455" grid="1" gridSize="10" guides="1" tooltips="1" connect="1" arrows="1" fold="1" page="1" pageScale="1" pageWidth="850" pageHeight="1100" math="0" shadow="0"><root><mxCell id="0"/><mxCell id="1" parent="0"/><mxCell id="n3DOP5MY9lgfGkFcCP3w-1" value="Birthday Letter" style="rounded=1;whiteSpace=wrap;html=1;" parent="1" vertex="1"><mxGeometry x="365" y="960" width="120" height="60" as="geometry"/></mxCell><mxCell id="n3DOP5MY9lgfGkFcCP3w-4" style="edgeStyle=orthogonalEdgeStyle;rounded=0;orthogonalLoop=1;jettySize=auto;html=1;entryX=0;entryY=0.5;entryDx=0;entryDy=0;" parent="1" source="n3DOP5MY9lgfGkFcCP3w-2" target="n3DOP5MY9lgfGkFcCP3w-3" edge="1"><mxGeometry relative="1" as="geometry"/></mxCell><mxCell id="n3DOP5MY9lgfGkFcCP3w-2" value="First card explaining the quest; containing binary code of IP" style="rounded=1;whiteSpace=wrap;html=1;" parent="1" vertex="1"><mxGeometry x="20" y="20" width="120" height="40" as="geometry"/></mxCell><mxCell id="n3DOP5MY9lgfGkFcCP3w-6" style="edgeStyle=orthogonalEdgeStyle;rounded=0;orthogonalLoop=1;jettySize=auto;html=1;entryX=0.5;entryY=0;entryDx=0;entryDy=0;" parent="1" source="n3DOP5MY9lgfGkFcCP3w-3" target="n3DOP5MY9lgfGkFcCP3w-5" edge="1"><mxGeometry relative="1" as="geometry"/></mxCell><mxCell id="n3DOP5MY9lgfGkFcCP3w-3" value="Website contain audio file in morse code" style="rounded=1;whiteSpace=wrap;html=1;" parent="1" vertex="1"><mxGeometry x="200" y="80" width="120" height="40" as="geometry"/></mxCell><mxCell id="n3DOP5MY9lgfGkFcCP3w-5" value="Leads to a photo of Barak, link from Dropbox; Inside the photo hides a txt file, long message in Beale's cipher." style="rounded=1;whiteSpace=wrap;html=1;" parent="1" vertex="1"><mxGeometry x="160" y="180" width="160" height="60" as="geometry"/></mxCell><mxCell id="n3DOP5MY9lgfGkFcCP3w-8" style="edgeStyle=orthogonalEdgeStyle;rounded=0;orthogonalLoop=1;jettySize=auto;html=1;entryX=1;entryY=0;entryDx=0;entryDy=0;fillColor=#dae8fc;strokeColor=#6c8ebf;" parent="1" source="n3DOP5MY9lgfGkFcCP3w-7" target="n3DOP5MY9lgfGkFcCP3w-3" edge="1"><mxGeometry relative="1" as="geometry"/></mxCell><mxCell id="n3DOP5MY9lgfGkFcCP3w-7" value="I'm protector of the electricity, decem (TEN) above the tenth prime" style="ellipse;shape=cloud;whiteSpace=wrap;html=1;" parent="1" vertex="1"><mxGeometry x="360" width="150" height="80" as="geometry"/></mxCell><mxCell id="n3DOP5MY9lgfGkFcCP3w-12" style="edgeStyle=orthogonalEdgeStyle;rounded=0;orthogonalLoop=1;jettySize=auto;html=1;entryX=0.914;entryY=0.444;entryDx=0;entryDy=0;entryPerimeter=0;fillColor=#f8cecc;strokeColor=#b85450;" parent="1" source="n3DOP5MY9lgfGkFcCP3w-9" target="n3DOP5MY9lgfGkFcCP3w-7" edge="1"><mxGeometry relative="1" as="geometry"/></mxCell><mxCell id="n3DOP5MY9lgfGkFcCP3w-9" value="Code Is &quot;Barak&quot;" style="shape=note;whiteSpace=wrap;html=1;backgroundOutline=1;darkOpacity=0.05;" parent="1" vertex="1"><mxGeometry x="540" width="50" height="60" as="geometry"/></mxCell><mxCell id="n3DOP5MY9lgfGkFcCP3w-15" value="In text file there is few riddles, each riddle opens something. Try to use some pages from the book I got her" style="rounded=1;whiteSpace=wrap;html=1;" parent="1" vertex="1"><mxGeometry x="380" y="180" width="180" height="60" as="geometry"/></mxCell><mxCell id="2" value="On the github page post x items (pdfs?), each item will be protected by pwd. Each file will contain the link for the next riddle or the riddle itslef." style="whiteSpace=wrap;html=1;aspect=fixed;" vertex="1" parent="1"><mxGeometry x="10" y="120" width="130" height="130" as="geometry"/></mxCell><mxCell id="3" value="Minutes of movie:&lt;br&gt;27:12, 20:01&lt;br&gt;תאריך גיוס + שחרור" style="shape=parallelogram;perimeter=parallelogramPerimeter;whiteSpace=wrap;html=1;fixedSize=1;" vertex="1" parent="1"><mxGeometry x="16" y="280" width="120" height="60" as="geometry"/></mxCell></root></mxGraphModel></diagram></mxfile>